<svg xmlns="http://www.w3.org/2000/svg" width="220" height="56" viewBox="0 0 220 56" fill="none">
<rect x="2" y="6" width="44" height="44" rx="14" fill="#111827"/>
<path d="M14 35L22.5 19L31 35L38 19" stroke="#F9FAFB" stroke-width="4" stroke-linecap="round" stroke-linejoin="round"/>
<circle cx="37" cy="35" r="5" fill="#F59E0B"/>
<path d="M66 20H74.5L88 36V20H95.5V43H87L73.5 27V43H66V20Z" fill="#111827"/>
<path d="M101 20H121V26H108.5V29H119V34.5H108.5V37H121.5V43H101V20Z" fill="#111827"/>
<path d="M124 20H132.5L138 34L143.5 20H151.5L141.5 43H133.5L124 20Z" fill="#111827"/>
<path d="M159.5 20H167L177.5 43H169.5L168 39.5H158.5L157 43H149L159.5 20ZM163.5 27.5L160.5 34.5H166.5L163.5 27.5Z" fill="#111827"/>
<path d="M180 20H191.5C197.8 20 201.5 23 201.5 28.5C201.5 31.9 199.8 34.1 196.8 35.2L202.5 43H193.8L189.2 36.6H187.5V43H180V20ZM191.2 30.8C193.6 30.8 194.9 29.9 194.9 28.1C194.9 26.3 193.6 25.5 191.2 25.5H187.5V30.8H191.2Z" fill="#111827"/>
<path d="M205 20H212.5V37H218V43H205V20Z" fill="#111827"/>
</svg>